<mxfile host="app.diagrams.net" agent="Mozilla/5.0 (Windows NT 10.0; Win64; x64) AppleWebKit/537.36 (KHTML, like Gecko) Chrome/136.0.0.0 Safari/537.36 Edg/136.0.0.0" version="27.0.4">
  <diagram name="Página-1" id="sVW-ZdJ0n1St3ifNVHTL">
    <mxGraphModel dx="2648" dy="672" grid="1" gridSize="10" guides="1" tooltips="1" connect="1" arrows="1" fold="1" page="1" pageScale="1" pageWidth="583" pageHeight="827" math="0" shadow="0">
      <root>
        <mxCell id="0" />
        <mxCell id="1" parent="0" />
        <mxCell id="4TLXDdViqweOG8OBOoL9-1" value="EC2" style="sketch=0;points=[[0,0,0],[0.25,0,0],[0.5,0,0],[0.75,0,0],[1,0,0],[0,1,0],[0.25,1,0],[0.5,1,0],[0.75,1,0],[1,1,0],[0,0.25,0],[0,0.5,0],[0,0.75,0],[1,0.25,0],[1,0.5,0],[1,0.75,0]];outlineConnect=0;fontColor=#232F3E;fillColor=#ED7100;strokeColor=#ffffff;dashed=0;verticalLabelPosition=bottom;verticalAlign=top;align=center;html=1;fontSize=12;fontStyle=0;aspect=fixed;shape=mxgraph.aws4.resourceIcon;resIcon=mxgraph.aws4.ec2;" vertex="1" parent="1">
          <mxGeometry y="280" width="78" height="78" as="geometry" />
        </mxCell>
        <mxCell id="4TLXDdViqweOG8OBOoL9-8" style="edgeStyle=orthogonalEdgeStyle;rounded=0;orthogonalLoop=1;jettySize=auto;html=1;" edge="1" parent="1" source="4TLXDdViqweOG8OBOoL9-2" target="4TLXDdViqweOG8OBOoL9-7">
          <mxGeometry relative="1" as="geometry" />
        </mxCell>
        <mxCell id="4TLXDdViqweOG8OBOoL9-9" value="1 - Get Domain" style="edgeLabel;html=1;align=center;verticalAlign=middle;resizable=0;points=[];" vertex="1" connectable="0" parent="4TLXDdViqweOG8OBOoL9-8">
          <mxGeometry x="0.1432" y="-1" relative="1" as="geometry">
            <mxPoint as="offset" />
          </mxGeometry>
        </mxCell>
        <mxCell id="4TLXDdViqweOG8OBOoL9-10" style="edgeStyle=orthogonalEdgeStyle;rounded=0;orthogonalLoop=1;jettySize=auto;html=1;" edge="1" parent="1" source="4TLXDdViqweOG8OBOoL9-2" target="4TLXDdViqweOG8OBOoL9-3">
          <mxGeometry relative="1" as="geometry">
            <Array as="points">
              <mxPoint x="-280" y="313" />
              <mxPoint x="-280" y="313" />
            </Array>
          </mxGeometry>
        </mxCell>
        <mxCell id="4TLXDdViqweOG8OBOoL9-11" value="2 - Chama ALB" style="edgeLabel;html=1;align=center;verticalAlign=middle;resizable=0;points=[];" vertex="1" connectable="0" parent="4TLXDdViqweOG8OBOoL9-10">
          <mxGeometry x="-0.1291" y="3" relative="1" as="geometry">
            <mxPoint as="offset" />
          </mxGeometry>
        </mxCell>
        <mxCell id="4TLXDdViqweOG8OBOoL9-2" value="USERS" style="sketch=0;outlineConnect=0;fontColor=#232F3E;gradientColor=none;fillColor=#232F3D;strokeColor=none;dashed=0;verticalLabelPosition=bottom;verticalAlign=top;align=center;html=1;fontSize=12;fontStyle=0;aspect=fixed;pointerEvents=1;shape=mxgraph.aws4.users;" vertex="1" parent="1">
          <mxGeometry x="-480" y="274" width="78" height="78" as="geometry" />
        </mxCell>
        <mxCell id="4TLXDdViqweOG8OBOoL9-16" style="edgeStyle=orthogonalEdgeStyle;rounded=0;orthogonalLoop=1;jettySize=auto;html=1;" edge="1" parent="1" source="4TLXDdViqweOG8OBOoL9-3" target="4TLXDdViqweOG8OBOoL9-6">
          <mxGeometry relative="1" as="geometry">
            <Array as="points">
              <mxPoint x="-205" y="230" />
              <mxPoint x="-205" y="230" />
            </Array>
          </mxGeometry>
        </mxCell>
        <mxCell id="4TLXDdViqweOG8OBOoL9-17" value="Usa certificado para SSL" style="edgeLabel;html=1;align=center;verticalAlign=middle;resizable=0;points=[];" vertex="1" connectable="0" parent="4TLXDdViqweOG8OBOoL9-16">
          <mxGeometry x="0.1859" y="1" relative="1" as="geometry">
            <mxPoint as="offset" />
          </mxGeometry>
        </mxCell>
        <mxCell id="4TLXDdViqweOG8OBOoL9-3" value="ALB&lt;div&gt;&lt;br&gt;&lt;/div&gt;" style="outlineConnect=0;dashed=0;verticalLabelPosition=bottom;verticalAlign=top;align=center;html=1;shape=mxgraph.aws3.application_load_balancer;fillColor=#F58534;gradientColor=none;" vertex="1" parent="1">
          <mxGeometry x="-240" y="280" width="69" height="72" as="geometry" />
        </mxCell>
        <mxCell id="4TLXDdViqweOG8OBOoL9-4" value="RDS" style="sketch=0;points=[[0,0,0],[0.25,0,0],[0.5,0,0],[0.75,0,0],[1,0,0],[0,1,0],[0.25,1,0],[0.5,1,0],[0.75,1,0],[1,1,0],[0,0.25,0],[0,0.5,0],[0,0.75,0],[1,0.25,0],[1,0.5,0],[1,0.75,0]];outlineConnect=0;fontColor=#232F3E;fillColor=#C925D1;strokeColor=#ffffff;dashed=0;verticalLabelPosition=bottom;verticalAlign=top;align=center;html=1;fontSize=12;fontStyle=0;aspect=fixed;shape=mxgraph.aws4.resourceIcon;resIcon=mxgraph.aws4.rds;" vertex="1" parent="1">
          <mxGeometry x="240" y="280" width="78" height="78" as="geometry" />
        </mxCell>
        <mxCell id="4TLXDdViqweOG8OBOoL9-5" value="" style="points=[];aspect=fixed;html=1;align=center;shadow=0;dashed=0;fillColor=#FF6A00;strokeColor=none;shape=mxgraph.alibaba_cloud.acms_application_configuration_manangement;" vertex="1" parent="1">
          <mxGeometry x="-231" y="150" width="51" height="47.400000000000006" as="geometry" />
        </mxCell>
        <mxCell id="4TLXDdViqweOG8OBOoL9-6" value="ACM" style="text;html=1;align=center;verticalAlign=middle;resizable=0;points=[];autosize=1;strokeColor=none;fillColor=none;" vertex="1" parent="1">
          <mxGeometry x="-229" y="189" width="50" height="30" as="geometry" />
        </mxCell>
        <mxCell id="4TLXDdViqweOG8OBOoL9-7" value="" style="sketch=0;points=[[0,0,0],[0.25,0,0],[0.5,0,0],[0.75,0,0],[1,0,0],[0,1,0],[0.25,1,0],[0.5,1,0],[0.75,1,0],[1,1,0],[0,0.25,0],[0,0.5,0],[0,0.75,0],[1,0.25,0],[1,0.5,0],[1,0.75,0]];outlineConnect=0;fontColor=#232F3E;fillColor=#8C4FFF;strokeColor=#ffffff;dashed=0;verticalLabelPosition=bottom;verticalAlign=top;align=center;html=1;fontSize=12;fontStyle=0;aspect=fixed;shape=mxgraph.aws4.resourceIcon;resIcon=mxgraph.aws4.route_53;" vertex="1" parent="1">
          <mxGeometry x="-480" y="40" width="78" height="78" as="geometry" />
        </mxCell>
        <mxCell id="4TLXDdViqweOG8OBOoL9-12" style="edgeStyle=orthogonalEdgeStyle;rounded=0;orthogonalLoop=1;jettySize=auto;html=1;entryX=0;entryY=0.5;entryDx=0;entryDy=0;entryPerimeter=0;" edge="1" parent="1" source="4TLXDdViqweOG8OBOoL9-3" target="4TLXDdViqweOG8OBOoL9-1">
          <mxGeometry relative="1" as="geometry">
            <Array as="points">
              <mxPoint x="-130" y="319" />
              <mxPoint x="-130" y="319" />
            </Array>
          </mxGeometry>
        </mxCell>
        <mxCell id="4TLXDdViqweOG8OBOoL9-13" value="3 - Chama Front / Back" style="edgeLabel;html=1;align=center;verticalAlign=middle;resizable=0;points=[];" vertex="1" connectable="0" parent="4TLXDdViqweOG8OBOoL9-12">
          <mxGeometry x="0.0005" relative="1" as="geometry">
            <mxPoint x="-5" as="offset" />
          </mxGeometry>
        </mxCell>
        <mxCell id="4TLXDdViqweOG8OBOoL9-14" style="edgeStyle=orthogonalEdgeStyle;rounded=0;orthogonalLoop=1;jettySize=auto;html=1;entryX=0;entryY=0.5;entryDx=0;entryDy=0;entryPerimeter=0;" edge="1" parent="1" source="4TLXDdViqweOG8OBOoL9-1" target="4TLXDdViqweOG8OBOoL9-4">
          <mxGeometry relative="1" as="geometry" />
        </mxCell>
        <mxCell id="4TLXDdViqweOG8OBOoL9-15" value="4 - Interage com DB" style="edgeLabel;html=1;align=center;verticalAlign=middle;resizable=0;points=[];" vertex="1" connectable="0" parent="4TLXDdViqweOG8OBOoL9-14">
          <mxGeometry x="-0.2649" relative="1" as="geometry">
            <mxPoint x="22" as="offset" />
          </mxGeometry>
        </mxCell>
        <mxCell id="4TLXDdViqweOG8OBOoL9-18" value="&lt;font style=&quot;font-size: 24px;&quot;&gt;Desenho de solução site igreja novo tempo&lt;/font&gt;" style="text;html=1;align=center;verticalAlign=middle;resizable=0;points=[];autosize=1;strokeColor=none;fillColor=none;" vertex="1" parent="1">
          <mxGeometry x="-291" y="78" width="480" height="40" as="geometry" />
        </mxCell>
      </root>
    </mxGraphModel>
  </diagram>
</mxfile>
